<svg width="119" height="87" viewBox="0 0 119 87" fill="none" xmlns="http://www.w3.org/2000/svg">
<ellipse cx="59.6584" cy="43.3046" rx="58.7248" ry="43.3046" fill="#89BB5B"/>
<g clip-path="url(#clip0_1_2)">
<path d="M15.9635 60.4443L16.0567 60.4315C16.3098 60.3969 16.5114 60.3204 16.6914 60.1924C16.8722 60.0628 17.0208 59.8841 17.1317 59.6619L17.1734 59.5773L17.0923 59.5298C17.0923 59.5298 16.6946 59.294 16.415 58.9019L15.7088 57.9126L17.4193 56.6881L18.1946 57.7749C18.5056 58.2104 18.5015 58.7466 18.5015 58.7522L18.4999 58.8802L18.6245 58.852C18.8366 58.8037 19.0503 58.7039 19.2608 58.5533C19.4801 58.3964 19.6352 58.2209 19.7244 58.0317L19.7573 57.9617L19.6987 57.9117C19.6987 57.9117 19.3709 57.6332 19.1411 57.312L18.1681 55.9483C18.0693 55.809 17.5262 54.9927 17.5205 54.9839L17.4916 54.9404L17.216 54.934L17.1863 54.9879C17.1831 54.9935 16.8561 55.5868 16.4383 55.8855L12.6911 58.5686C12.2202 58.9059 11.6112 59.0339 11.6056 59.0356L11.5116 59.0549L11.5269 59.1499C11.5679 59.4131 11.6835 59.6876 11.8515 59.9227C12.013 60.1481 12.2339 60.3461 12.4749 60.4798L12.5609 60.5273L12.6107 60.4427C12.6139 60.4371 12.9321 59.9018 13.4029 59.5653L14.8684 58.5163L15.5867 59.5234C15.8542 59.8985 15.9466 60.3469 15.9474 60.351L15.9659 60.4435L15.9635 60.4443Z" fill="black"/>
<path d="M22.4788 60.8268C21.1114 59.4961 18.8111 59.0927 17.0613 60.8976C15.7846 62.2138 15.223 64.422 17.0066 66.1584C17.8342 66.9642 18.7621 67.3032 19.6523 67.3032C20.7057 67.3032 21.7059 66.8282 22.4242 66.0876C23.7009 64.7714 24.2625 62.5632 22.4788 60.8268ZM22.3455 63.1774C22.3591 63.8995 22.0482 64.6088 21.4472 65.2286C20.8655 65.8284 20.1963 66.1504 19.5117 66.16C18.9124 66.1729 18.3251 65.933 17.8759 65.4951C16.9906 64.6329 16.7616 63.0728 18.0374 61.7566C18.6215 61.1544 19.2916 60.8308 19.9753 60.8219C20.5771 60.8155 21.158 61.0514 21.6087 61.4893C22.0723 61.9401 22.3342 62.5398 22.3455 63.1766V63.1774Z" fill="black"/>
<path d="M27.1248 64.7287C26.8043 64.5073 26.5817 64.3793 26.3664 64.2553C26.1728 64.1434 25.9896 64.038 25.7494 63.8713L25.256 63.5308L25.0054 63.5912L24.9941 63.6572C24.9925 63.6644 24.8744 64.3511 24.5892 64.7665L21.9885 68.5477C21.6607 69.0251 21.132 69.3527 21.1264 69.3559L21.0428 69.4075L21.0918 69.4928C21.23 69.7319 21.4309 69.9501 21.6582 70.107C21.8864 70.2648 22.1612 70.3751 22.4328 70.4186L22.5292 70.4339L22.5477 70.3373C22.5493 70.3308 22.6666 69.7198 22.9952 69.2424L23.8316 68.0261L24.4301 68.439C24.4566 68.4857 24.5635 68.7087 24.602 69.3294L24.6904 71.0433C24.7234 71.6148 24.6045 71.8419 24.6037 71.8427L24.5771 71.8893L24.6012 71.9376C24.7009 72.1397 24.8728 72.3257 25.1114 72.4899C25.4216 72.704 25.6947 72.8183 25.947 72.8393L26.0748 72.8497L26.0547 72.7225C26.0539 72.7169 25.9623 72.1284 25.9342 71.6446L25.8225 69.5065C25.8136 69.3117 25.7879 69.0533 25.7212 68.8399C26.5327 68.9156 27.3466 68.534 27.8287 67.8336C28.2031 67.2886 28.318 66.6929 28.1605 66.1109C28.0175 65.5812 27.6495 65.0901 27.1257 64.7279L27.1248 64.7287ZM26.748 67.2081C26.3873 67.733 25.6883 68.0848 25.1861 67.7387L24.3835 67.1848L25.8289 65.0837C25.9358 65.1425 26.1527 65.268 26.4612 65.4814C27.1988 65.9901 27.0766 66.73 26.7472 67.2081H26.748Z" fill="black"/>
<path d="M33.1141 71.6825C32.6842 71.0497 32.313 70.5039 32.5235 70.0563C32.7726 69.5282 33.4049 69.4896 33.9014 69.7247C34.3835 69.9525 34.7025 70.392 34.7772 70.9306L34.7941 71.0497L34.9082 71.0127C35.1725 70.9258 35.5445 70.7044 35.8096 70.1425L35.8321 70.0942L35.8048 70.0483C35.5107 69.5476 35.0287 69.1209 34.447 68.8456C33.8653 68.5703 33.2515 68.4849 32.7164 68.6041C32.1042 68.7409 31.6285 69.137 31.3401 69.7496C30.8982 70.6875 31.4984 71.577 32.0278 72.3611C32.4834 73.0357 32.914 73.6733 32.6465 74.2416C32.4143 74.7343 31.843 74.9549 31.3738 74.7319C30.993 74.5516 30.5511 74.0718 30.4531 73.266L30.4386 73.1468L30.3237 73.1814C29.6673 73.3827 29.4641 73.6838 29.2672 73.9744L29.2343 74.0235L29.2608 74.0766C29.5894 74.7287 30.2185 75.3349 30.9014 75.6585C31.2372 75.8171 31.5908 75.8984 31.9354 75.8984C32.1379 75.8984 32.3363 75.8702 32.5276 75.8147C33.0996 75.6464 33.552 75.2391 33.8356 74.6369C34.361 73.522 33.6974 72.5455 33.1125 71.6833L33.1141 71.6825Z" fill="black"/>
<path d="M39.062 74.0589L39.0515 73.9647L38.9575 73.9695C38.9519 73.9695 38.4996 73.9889 38.0464 73.8214L36.8164 73.3658L37.5218 71.4514L38.8234 71.9328C39.2958 72.1075 39.6244 72.5664 39.6276 72.5712L39.7007 72.6751L39.7851 72.5801C39.9361 72.4094 40.0607 72.1977 40.1458 71.9666C40.235 71.7243 40.2655 71.4885 40.2334 71.2848L40.2213 71.2075L40.1434 71.2003C40.1434 71.2003 39.7361 71.1624 39.3472 71.0175L37.7379 70.4218C37.4479 70.3139 36.6597 69.9887 36.6517 69.9855L36.5914 69.9605L36.4042 70.1368L36.4066 70.1835C36.4066 70.1908 36.442 70.8799 36.2636 71.3645L34.7242 75.5401C34.484 76.1914 34.0011 76.6317 33.9971 76.6358L33.965 76.6647L33.9569 76.9199L34.0276 76.9433C34.0381 76.9465 35.0376 77.2822 35.1773 77.3337L36.8991 77.9713C37.2888 78.1154 37.6198 78.3489 37.623 78.3513L37.6865 78.3963L37.7459 78.3456C37.9002 78.2136 38.0352 78.0059 38.1252 77.7612C38.2079 77.5382 38.2489 77.2991 38.2457 77.0705L38.2433 76.9433L38.1203 76.9747C38.1147 76.9763 37.5684 77.1107 37.0952 76.936L35.6915 76.4168L36.4612 74.3294L37.7018 74.7882C38.1445 74.9517 38.4763 75.2616 38.4803 75.2648L38.5478 75.3276L38.6161 75.2664C38.7591 75.1384 38.8876 74.9396 38.9688 74.7198C39.0515 74.4952 39.0853 74.2601 39.0628 74.0565L39.062 74.0589Z" fill="black"/>
<path d="M44.7807 74.7931C45.1655 73.3537 44.2038 72.4045 43.0798 72.1027C42.7038 72.002 42.4515 71.9553 42.2073 71.9111C41.9871 71.8708 41.779 71.833 41.4978 71.7573L40.9193 71.6019L40.7032 71.7428L40.7145 71.8088C40.7161 71.8161 40.8334 72.5028 40.704 72.9898L39.5173 77.4255C39.3679 77.9858 38.979 78.472 38.9758 78.4768L38.914 78.5533L38.9887 78.6169C39.1984 78.7956 39.4611 78.9341 39.727 79.0057C39.9954 79.0774 40.2911 79.0903 40.5618 79.0395L40.6582 79.0218L40.643 78.9244C40.6422 78.918 40.5482 78.3029 40.6984 77.7426L41.08 76.3162L41.7814 76.5045C41.8224 76.5399 41.9976 76.7138 42.241 77.2854L42.8966 78.8705C43.1192 79.3978 43.0814 79.6514 43.0814 79.653L43.0718 79.7061L43.1103 79.7431C43.2726 79.9001 43.4968 80.0176 43.7756 80.0925C43.9933 80.1513 44.1869 80.1803 44.3605 80.1803C44.4754 80.1803 44.5822 80.1674 44.6794 80.1416L44.8032 80.1086L44.7421 79.9959C44.7389 79.9903 44.4561 79.467 44.2681 79.0202L43.4478 77.0431C43.3457 76.7943 43.2381 76.5939 43.1296 76.449C43.9218 76.2485 44.5589 75.615 44.7791 74.7931H44.7807ZM43.5538 74.5652C43.4678 74.8872 43.2855 75.1843 43.0541 75.3799C42.8805 75.5264 42.6009 75.681 42.2595 75.5892L41.3178 75.3364L41.9767 72.8715C42.0972 72.8908 42.3438 72.9367 42.7062 73.0341C43.0918 73.1379 43.3594 73.344 43.5008 73.6475C43.6229 73.9091 43.6414 74.2352 43.553 74.5644L43.5538 74.5652Z" fill="black"/>
<path d="M48.3296 73.4994C48.1079 73.3352 47.8371 73.2152 47.5655 73.1613C47.294 73.1082 46.9975 73.1154 46.7308 73.1846L46.636 73.2088L46.6577 73.3046C46.6593 73.3102 46.7942 73.9188 46.6826 74.4872L45.7988 78.9929C45.6871 79.562 45.3328 80.0732 45.3296 80.078L45.2733 80.1585L45.3521 80.2173C45.573 80.3815 45.8446 80.5015 46.1161 80.5554C46.2342 80.5788 46.3572 80.59 46.4801 80.59C46.6392 80.59 46.7991 80.5707 46.9501 80.5321L47.0449 80.5079L47.0232 80.4121C47.0216 80.4065 46.8866 79.7979 46.9983 79.2287L47.8821 74.723C47.9938 74.1539 48.3481 73.6427 48.3513 73.6371L48.4075 73.5566L48.3288 73.4986L48.3296 73.4994Z" fill="black"/>
<path d="M52.6486 73.8916C51.6748 73.7789 50.6818 74.0212 49.9225 74.5565C49.0588 75.1659 48.531 76.1006 48.3976 77.259C48.261 78.4432 48.535 79.4744 49.189 80.2416C49.7659 80.9186 50.6071 81.3517 51.5567 81.462C51.711 81.4797 51.8661 81.4886 52.0211 81.4886C52.8358 81.4886 53.6384 81.2439 54.2788 80.793C55.1457 80.1812 55.6744 79.2482 55.8069 78.0946C55.9435 76.9104 55.6695 75.8792 55.0155 75.112C54.4387 74.435 53.5975 74.0019 52.6478 73.8916H52.6486ZM49.6952 77.3435C49.9065 75.5105 51.2273 74.8174 52.3626 74.9494C53.5509 75.087 54.7311 76.1038 54.511 78.0109C54.2997 79.8439 52.9796 80.5387 51.8436 80.4058C50.6167 80.2641 49.4855 79.1669 49.6952 77.3443V77.3435Z" fill="black"/>
<path d="M62.0213 74.3953C61.7409 74.3937 61.4669 74.4533 61.2339 74.5716L61.1503 74.6143L61.1873 74.7012C61.1897 74.7069 61.4323 75.2808 61.4251 75.8605L61.393 78.5476C61.3697 80.4926 60.7181 80.8621 59.631 80.8524C58.4452 80.8387 57.9695 80.1593 57.9888 78.5074L58.0217 75.7767C58.0282 75.2092 58.2837 74.6747 58.2861 74.669L58.3295 74.5789L58.2403 74.5346C57.9928 74.413 57.7052 74.3446 57.428 74.3414C57.1508 74.3478 56.8616 74.4002 56.6117 74.5153L56.5233 74.5563L56.5619 74.6465C56.5643 74.6521 56.8069 75.2253 56.7997 75.8049L56.766 78.699C56.7523 79.8767 56.999 80.7075 57.522 81.2372C57.9808 81.7025 58.6565 81.9344 59.5868 81.9448C59.6045 81.9448 59.623 81.9448 59.6399 81.9448C61.4645 81.9448 62.5234 80.817 62.5475 78.8431L62.5821 75.8733C62.5893 75.2937 62.8456 74.7262 62.848 74.7206L62.8874 74.6344L62.8046 74.5893C62.5748 74.4654 62.3041 74.3977 62.0221 74.3945L62.0213 74.3953Z" fill="black"/>
<path d="M65.9027 77.1808C65.2166 76.8451 64.6236 76.5553 64.5843 76.0626C64.5385 75.4806 65.0687 75.132 65.6159 75.0885C66.1445 75.0451 66.6427 75.2697 66.9745 75.6996L67.0476 75.7954L67.1288 75.706C67.316 75.4991 67.5281 75.1215 67.4799 74.5025L67.4758 74.4494L67.43 74.4228C66.9271 74.1346 66.2956 74.0026 65.6552 74.0541C64.4517 74.1491 63.2899 74.9066 63.4064 76.3846C63.4876 77.4191 64.4493 77.8916 65.2977 78.3094C66.028 78.6685 66.7174 79.0082 66.7664 79.6345C66.7873 79.9002 66.7069 80.157 66.5414 80.3566C66.3783 80.5538 66.1518 80.673 65.9043 80.6931C65.4825 80.7229 64.8631 80.5297 64.3786 79.8784L64.3063 79.7818L64.2243 79.8696C63.7551 80.3703 63.7262 80.7326 63.6997 81.0835L63.6949 81.1423L63.7447 81.1753C64.2854 81.5335 65.0149 81.742 65.6994 81.742C65.7846 81.742 65.869 81.7388 65.9525 81.7324C67.0179 81.6487 68.1106 80.8783 67.9933 79.3849C67.8968 78.1557 66.8371 77.6372 65.9019 77.1808H65.9027Z" fill="black"/>
<path d="M74.8438 76.2437C75.2576 75.776 75.3468 75.0732 75.2407 74.5395C75.1467 74.0637 74.8816 73.658 74.4959 73.3955C74.0597 73.0993 73.5005 73.0091 72.8778 73.1331C72.6127 73.1862 72.411 73.2458 72.2158 73.3037C72.0165 73.3633 71.8285 73.4189 71.5722 73.4704L70.5551 73.6733L70.453 73.8769L70.4803 73.9244C70.4843 73.9317 70.9086 74.6594 70.9865 75.0547L71.8631 79.4718C71.9394 79.8558 71.8237 80.6802 71.8221 80.6882L71.8156 80.7341L71.9844 80.9257L73.0104 80.7212C73.2683 80.6697 73.5655 80.6302 73.8524 80.5924C74.1432 80.5538 74.4437 80.5135 74.7072 80.4612C75.5251 80.2986 75.9534 79.8156 76.1695 79.4404C76.441 78.9671 76.5334 78.377 76.4226 77.8207C76.2908 77.1566 75.7011 76.4152 74.843 76.2445L74.8438 76.2437ZM75.1419 78.9373C74.9892 79.2327 74.6871 79.4275 74.2436 79.5153C73.821 79.5998 73.3277 79.6578 73.1285 79.6803L72.6641 77.3393C72.881 77.2934 73.4065 77.1815 73.6395 77.1356C74.05 77.0535 74.4236 77.1115 74.7193 77.3031C74.9836 77.4746 75.162 77.7394 75.2238 78.0485C75.272 78.2901 75.297 78.6402 75.1435 78.9381L75.1419 78.9373ZM73.9705 75.7083C73.8524 75.9692 73.6668 76.1366 73.4482 76.1801L72.4713 76.3749L72.0687 74.3479C72.1708 74.3116 72.3829 74.2464 72.7404 74.1748C73.118 74.0999 73.4426 74.1442 73.6796 74.3028C73.8789 74.4356 74.0163 74.6505 74.0669 74.9057C74.1183 75.1617 74.0813 75.462 73.9697 75.7083H73.9705Z" fill="black"/>
<path d="M82.7012 76.4781L78.9346 71.5779L78.8921 71.5731C78.7017 71.5514 78.4944 71.5723 78.2895 71.6351C78.0951 71.6946 77.8958 71.8025 77.7287 71.9394L77.6483 72.0046L77.7166 72.0827C77.7881 72.1648 77.8733 72.2904 77.8974 72.3717C77.9601 72.5761 77.9368 72.8515 77.9095 73.1719L77.5407 78.006C77.4836 78.6557 77.2265 79.5782 77.2241 79.5879L77.1952 79.6917L77.3005 79.7135C77.3888 79.732 77.4828 79.7416 77.5809 79.7416C77.7568 79.7416 77.9456 79.7119 78.1384 79.6531C78.5562 79.5259 78.8848 79.3077 79.0439 79.1886L79.1588 79.1033L79.0399 79.0244C78.8712 78.9117 78.7491 78.7378 78.6792 78.5075C78.6149 78.2966 78.59 78.0414 78.6068 77.7693L78.6703 76.5674L80.7295 75.9387L81.4687 76.8862C81.7338 77.2235 81.8495 77.4159 81.913 77.6228C81.958 77.7734 81.9765 77.9489 81.9901 78.167L81.995 78.2507L82.0785 78.2604C82.3726 78.2958 82.6923 78.2644 83.0017 78.1694C83.3062 78.0761 83.5809 77.9287 83.818 77.7299L83.9168 77.647L83.8123 77.5713C83.8059 77.5665 83.1768 77.1076 82.7004 76.4813L82.7012 76.4781ZM80.1053 75.1087L78.7306 75.5282C78.7756 74.8938 78.8013 73.8722 78.8125 73.3731L80.1053 75.1087Z" fill="black"/>
<path d="M86.482 75.4474L84.5746 70.8475L85.7155 70.3726C86.0987 70.2132 86.8443 70.2864 86.8515 70.2872L86.9704 70.2993L86.9624 70.1802C86.9463 69.958 86.862 69.7253 86.813 69.607C86.6957 69.3252 86.5269 69.0877 86.351 68.9549L86.294 68.9122L86.2345 68.9517C86.2297 68.9549 85.7573 69.2665 85.3403 69.4403L81.9104 70.8685C81.4934 71.0423 80.9503 71.1534 80.9446 71.155L80.878 71.1687L80.8659 71.2355C80.8257 71.4577 80.8699 71.7403 80.9904 72.0325C81.0523 72.1822 81.1576 72.3932 81.3038 72.5437L81.3833 72.625L81.454 72.5365C81.4589 72.5308 81.9232 71.9536 82.3057 71.795L83.4466 71.3201L85.3539 75.92C85.5765 76.4553 85.5644 77.0784 85.5644 77.0848L85.562 77.183L85.6592 77.1879C85.689 77.1895 85.7195 77.1903 85.7492 77.1903C85.9967 77.1903 86.2538 77.1396 86.482 77.0446C86.7375 76.9375 86.9793 76.7668 87.1633 76.5616L87.2284 76.4883L87.1568 76.4207C87.152 76.4167 86.7029 75.9852 86.4812 75.4498L86.482 75.4474Z" fill="black"/>
<path d="M95.2521 70.7374L92.9679 66.7566C92.6795 66.2534 92.612 65.6344 92.6112 65.6279L92.6008 65.5305L92.5035 65.5378C92.2288 65.5595 91.946 65.6473 91.7065 65.7849C91.4663 65.9234 91.2486 66.1246 91.0919 66.3509L91.0365 66.4314L91.1152 66.4893C91.12 66.4933 91.6206 66.8636 91.909 67.366L92.7414 68.8166L89.7333 70.5498L88.9009 69.0992C88.6125 68.5961 88.545 67.977 88.5442 67.9706L88.5337 67.8731L88.4365 67.8804C88.1618 67.9013 87.8789 67.9899 87.6387 68.1275C87.3993 68.2652 87.1816 68.4664 87.0241 68.6935L86.9686 68.774L87.0474 68.8319C87.0522 68.8359 87.5527 69.2063 87.8412 69.7086L90.1262 73.6894C90.4146 74.1926 90.4821 74.8116 90.4829 74.8181L90.4933 74.9155L90.5905 74.9082C90.8653 74.8865 91.1481 74.7987 91.3876 74.6611C91.6278 74.5226 91.8455 74.3214 92.0022 74.0952L92.0576 74.0147L91.9789 73.9567C91.9741 73.9527 91.4735 73.5824 91.1851 73.08L90.2716 71.4885L93.2797 69.7553L94.1932 71.3476C94.4816 71.8508 94.5491 72.4698 94.5499 72.4763L94.5603 72.5737L94.6576 72.5664C94.9323 72.5447 95.2151 72.4569 95.4546 72.3193C95.694 72.1816 95.9125 71.9804 96.0692 71.7533L96.1246 71.6728L96.0459 71.6149C96.0411 71.6109 95.5405 71.2406 95.2521 70.7382V70.7374Z" fill="black"/>
<path d="M100.191 67.9915C100.048 67.8015 99.8692 67.6381 99.6748 67.5181L99.5671 67.4513L99.527 67.5721C99.5253 67.5777 99.3446 68.1122 98.9429 68.4165L97.7514 69.3222L96.4096 67.5487L97.4629 66.7477C97.8389 66.4619 98.2784 66.3484 98.2824 66.3476L98.3716 66.3251L98.3572 66.2341C98.3266 66.0441 98.2286 65.8284 98.0872 65.6416C97.9426 65.45 97.7626 65.2955 97.5802 65.2053L97.4959 65.1634L97.4493 65.2455C97.4493 65.2455 97.2187 65.6424 96.8346 65.9346L95.7894 66.7284L94.5593 65.1023L95.6648 64.2626C96.0665 63.9575 96.629 63.9277 96.6346 63.9269L96.7615 63.9213L96.7262 63.7989C96.6635 63.5783 96.5518 63.3594 96.4048 63.1646C96.2497 62.9593 96.0673 62.8071 95.8785 62.7242L95.807 62.6928L95.7588 62.7548C95.7588 62.7548 95.5073 63.0776 95.1763 63.3288L93.8089 64.3673C93.5622 64.5548 92.864 65.0443 92.8576 65.0491L92.8046 65.0862L92.852 65.3397L92.893 65.3631C92.8986 65.3663 93.4979 65.7076 93.8089 66.119L96.4924 69.6659C96.911 70.219 97.0218 70.8638 97.0226 70.8702L97.0299 70.9129L97.2404 71.0578L97.299 71.0103C97.3071 71.0039 98.1274 70.3397 98.2463 70.2496L99.7085 69.1386C100.04 68.8875 100.414 68.7337 100.418 68.7321L100.49 68.7023L100.48 68.6242C100.453 68.423 100.35 68.1976 100.192 67.9891L100.191 67.9915Z" fill="black"/>
<path d="M104.518 62.8787L102.4 62.6002C102.207 62.5736 101.949 62.5527 101.727 62.5793C101.951 61.792 101.723 60.9217 101.123 60.3196C100.657 59.8518 100.094 59.6305 99.493 59.6796C98.9466 59.7247 98.3979 59.9976 97.948 60.4484C97.6724 60.7237 97.5061 60.9193 97.3454 61.1093C97.2008 61.28 97.0634 61.441 96.8569 61.6479L96.4335 62.0713L96.4463 62.3289L96.509 62.3514C96.5154 62.3539 97.1686 62.5954 97.5238 62.952L100.762 66.2011C101.171 66.6108 101.396 67.1912 101.399 67.1977L101.434 67.2894L101.526 67.2564C101.786 67.1647 102.037 67.0061 102.233 66.8105C102.429 66.6148 102.587 66.3637 102.679 66.1036L102.712 66.0111L102.621 65.9756C102.615 65.9732 102.036 65.7462 101.628 65.3357L100.586 64.2907L101.101 63.7763C101.152 63.7586 101.389 63.6942 102.005 63.7691L103.703 63.9937C104.269 64.0653 104.471 64.2239 104.472 64.2255L104.513 64.2601L104.564 64.2449C104.781 64.1829 104.995 64.0476 105.2 63.8423C105.466 63.5767 105.627 63.3279 105.695 63.0832L105.728 62.9592L105.6 62.956C105.593 62.956 105 62.9391 104.52 62.8787H104.518ZM100.549 62.9037L99.8594 63.5936L98.0596 61.7879C98.1368 61.6929 98.2999 61.5021 98.5658 61.2365C98.8478 60.9539 99.1604 60.8251 99.4938 60.8549C99.7806 60.8807 100.071 61.0272 100.312 61.2687C100.547 61.5046 100.713 61.8113 100.766 62.1099C100.805 62.3337 100.8 62.6525 100.549 62.9037Z" fill="black"/>
<path d="M108.154 59.4896C108.095 58.8947 107.779 58.3738 107.241 57.9826C106.244 57.2589 105.164 57.7306 104.209 58.1476C103.509 58.4535 102.903 58.7175 102.504 58.4277C102.032 58.0848 102.112 57.4545 102.434 57.0085C102.747 56.5754 103.239 56.3411 103.78 56.3685L103.901 56.3741L103.885 56.2542C103.849 55.9773 103.701 55.5699 103.198 55.2052L103.155 55.1738L103.105 55.1916C102.56 55.388 102.051 55.784 101.673 56.3057C100.965 57.2846 100.786 58.6628 101.985 59.5338C102.824 60.1424 103.807 59.7166 104.675 59.3398C105.421 59.0162 106.126 58.7095 106.635 59.079C107.076 59.3986 107.185 60.0016 106.881 60.4234C106.633 60.7655 106.08 61.1109 105.271 61.0586L105.152 61.0505L105.165 61.1704C105.242 61.8547 105.499 62.1107 105.748 62.3587L105.789 62.4005L105.847 62.3844C106.547 62.1816 107.258 61.6744 107.702 61.061C108.049 60.582 108.21 60.0233 108.157 59.488L108.154 59.4896Z" fill="black"/>
<path d="M25.687 21.6916L19.752 18.2606L19.711 18.2719C19.5086 18.329 19.3045 18.4385 19.1221 18.589C18.9478 18.7323 18.7903 18.9272 18.6778 19.1365L18.6288 19.2274L18.7212 19.2741C18.8305 19.3297 18.9727 19.4239 19.0329 19.4971C19.1856 19.6839 19.278 19.9769 19.3856 20.3174L21.0504 25.4382C21.2665 26.1297 21.3926 27.1875 21.3942 27.198L21.4071 27.305L21.5131 27.2849C21.7879 27.2334 22.0748 27.0901 22.3431 26.8687C22.7167 26.5612 22.9609 26.1989 23.0734 26.0097L23.1465 25.8874L23.0067 25.86C22.7834 25.8157 22.5825 25.6869 22.4122 25.4784C22.2563 25.2884 22.1222 25.0357 22.0241 24.7475L21.579 23.4787L23.4398 21.9492L24.6064 22.6117C25.0226 22.8468 25.2242 22.9957 25.3769 23.1825C25.487 23.3169 25.5777 23.4844 25.6878 23.7098L25.7248 23.7855L25.8059 23.7629C26.1209 23.6744 26.4342 23.5077 26.7114 23.2799C26.983 23.0569 27.2015 22.7905 27.3606 22.4862L27.4208 22.3718L27.2947 22.3413C27.2859 22.3396 26.4447 22.1344 25.6894 21.6924L25.687 21.6916ZM22.4676 21.3752L21.2086 22.4097C20.9829 21.7278 20.5619 20.6258 20.3642 20.117L22.4676 21.3752Z" fill="black"/>
<path d="M31.5272 15.1217C31.8245 14.4906 31.6927 13.7089 31.4059 13.1736C31.1528 12.701 30.7423 12.3573 30.2506 12.2059C29.6938 12.0345 29.0727 12.1198 28.4541 12.4523C28.1889 12.5948 27.9945 12.7244 27.8065 12.8491C27.6225 12.9715 27.4321 13.0979 27.1758 13.2364L26.1651 13.7806L26.1249 14.0188L26.1651 14.0559C26.1723 14.0623 26.8592 14.6991 27.0721 15.0943L29.4351 19.5043C29.6415 19.8891 29.7862 20.8044 29.787 20.814L29.7942 20.8599L30.0256 21.0024L31.0444 20.4542C31.3023 20.3157 31.6052 20.1764 31.8984 20.0428C32.1949 19.9076 32.501 19.7667 32.7637 19.6258C34.1537 18.8779 34.2975 17.342 33.7262 16.2761C33.3703 15.612 32.4978 15.0147 31.5272 15.1225V15.1217ZM30.0489 15.5049L29.0639 16.0346L27.9696 13.9931C28.0636 13.923 28.2701 13.7814 28.6364 13.5841C29.0165 13.3797 29.3788 13.3217 29.6849 13.4135C29.942 13.4915 30.1606 13.6759 30.2988 13.9335C30.5743 14.4487 30.5261 15.2473 30.0489 15.5041V15.5049ZM31.9739 18.7918C31.5449 19.0229 31.0299 19.2491 30.8314 19.3344L29.5692 16.9789C29.7789 16.8622 30.3132 16.5667 30.5494 16.4395C30.9632 16.2174 31.3818 16.157 31.7594 16.2657C32.0985 16.3631 32.3773 16.5877 32.5436 16.8992C32.8449 17.4611 32.9903 18.246 31.9739 18.7926V18.7918Z" fill="black"/>
<path d="M40.5793 14.1894L36.0166 9.06869L35.974 9.06708C35.7643 9.05823 35.5361 9.09767 35.316 9.18301C35.1063 9.26431 34.8958 9.39875 34.723 9.56298L34.6483 9.63462L34.7214 9.70788C34.8082 9.79482 34.9135 9.92926 34.948 10.017C35.0348 10.2416 35.0308 10.5491 35.0267 10.9066L35.0067 16.2913C34.9954 17.0167 34.7849 18.0608 34.7825 18.0713L34.7608 18.1767L34.8677 18.1912C34.9295 18.1992 34.9938 18.2041 35.0597 18.2041C35.2871 18.2041 35.5345 18.1542 35.786 18.0568C36.2367 17.8829 36.5822 17.6148 36.7477 17.4707L36.8554 17.3773L36.7316 17.3073C36.5332 17.1954 36.383 17.0102 36.2857 16.7575C36.1974 16.528 36.1492 16.2455 36.1459 15.9412L36.1194 14.5968L38.365 13.7282L39.2649 14.724C39.5863 15.0774 39.7317 15.2827 39.8177 15.5073C39.8803 15.6707 39.9157 15.8647 39.9478 16.1062L39.9591 16.1891L40.0426 16.1931C40.3712 16.2084 40.7199 16.1481 41.0542 16.0184C41.382 15.8921 41.6728 15.7061 41.9187 15.4678L42.0119 15.3776L41.9018 15.3092C41.8946 15.3044 41.1594 14.8463 40.5801 14.1894H40.5793ZM37.6211 12.8789L36.1026 13.4665C36.1018 12.7476 36.0455 11.5699 36.0174 11.0241L37.6211 12.8789Z" fill="black"/>
<path d="M45.4083 6.19982L45.3577 6.14991L45.2934 6.1805C45.2878 6.18292 44.7206 6.45662 44.2345 6.58543L40.2454 7.64725C39.7602 7.77686 39.1439 7.81872 39.1375 7.81953L39.07 7.82436L39.0491 7.88876C38.972 8.12543 38.9792 8.44181 39.0684 8.77831C39.1142 8.95219 39.1985 9.19853 39.3359 9.38368L39.4034 9.47465L39.4854 9.39656C39.4918 9.39093 40.0904 8.82258 40.5379 8.70344L41.8756 8.34681L43.2977 13.7066C43.4632 14.3313 43.358 15.018 43.3563 15.0253L43.3411 15.1219L43.4375 15.1396C43.5604 15.1629 43.6882 15.1742 43.8167 15.1742C43.9999 15.1742 44.1855 15.1509 44.359 15.1042C44.6547 15.0253 44.9447 14.8731 45.1769 14.6759L45.2517 14.6123L45.1906 14.5358C45.1866 14.5302 44.7543 13.9876 44.5888 13.3621L43.1667 8.00227L44.5045 7.64645C44.952 7.5273 45.7651 7.7189 45.7731 7.72131L45.8896 7.74949L45.8968 7.62954C45.9121 7.3832 45.8534 7.11674 45.8173 6.97989C45.7313 6.65466 45.5819 6.36968 45.4083 6.19741V6.19982Z" fill="black"/>
<path d="M54.5748 11.6029L53.8783 6.54735C53.7899 5.90655 53.9787 5.23839 53.9803 5.23114L54.0076 5.13695L53.9144 5.10717C53.6236 5.01539 53.2974 4.98722 52.9945 5.02908C52.6916 5.07094 52.3855 5.18606 52.1308 5.3535L52.0488 5.40744L52.1002 5.49116C52.1035 5.4968 52.4658 6.08929 52.5542 6.73009L52.8097 8.58325L48.9676 9.11537L48.7121 7.26221C48.6238 6.62141 48.8126 5.95325 48.8142 5.946L48.8415 5.85181L48.7483 5.82203C48.4574 5.72945 48.1312 5.70208 47.8284 5.74394C47.5255 5.7858 47.2185 5.90092 46.9647 6.06836L46.8827 6.1223L46.9341 6.20602C46.9373 6.21166 47.2997 6.80415 47.3881 7.44495L48.0847 12.5005C48.173 13.1413 47.9842 13.8095 47.9826 13.8167L47.9553 13.9109L48.0485 13.9407C48.2502 14.0051 48.4695 14.0381 48.6864 14.0381C48.7812 14.0381 48.8752 14.0316 48.9676 14.0188C49.2713 13.9769 49.5774 13.861 49.8313 13.6943L49.9133 13.6404L49.8619 13.5567C49.8586 13.551 49.4963 12.9585 49.4071 12.3177L49.1267 10.2851L52.9688 9.75375L53.2492 11.7864C53.3375 12.4272 53.1487 13.0954 53.1471 13.1026L53.1198 13.1968L53.213 13.2266C53.503 13.3184 53.8292 13.3466 54.1321 13.3047C54.435 13.2628 54.7419 13.1477 54.9958 12.9803L55.0778 12.9263L55.0264 12.8426C55.0232 12.837 54.6608 12.2445 54.5716 11.6037L54.5748 11.6029Z" fill="black"/>
<path d="M57.2639 11.508L56.9867 6.41299C56.9514 5.76737 57.1948 5.11691 57.1972 5.11047L57.2318 5.0187L57.141 4.98167C56.859 4.86574 56.5352 4.811 56.2315 4.82791C55.9262 4.84481 55.6112 4.93417 55.3437 5.07988L55.2577 5.12657L55.3019 5.21351C55.3051 5.21995 55.6168 5.83982 55.6522 6.48545L55.9294 11.5804C55.9647 12.2261 55.7213 12.8765 55.7189 12.883L55.6843 12.9747L55.7751 13.0118C56.0234 13.114 56.3038 13.1687 56.5761 13.1687C56.6131 13.1687 56.6493 13.1679 56.6854 13.1655C56.9899 13.1486 57.3057 13.0593 57.5732 12.9135L57.6592 12.8669L57.615 12.7791C57.6118 12.7727 57.2992 12.1528 57.2647 11.5072L57.2639 11.508Z" fill="black"/>
<path d="M65.0847 4.83518C64.7376 4.82552 64.4516 4.88751 64.229 5.01953L64.1543 5.06381L64.1872 5.14431C64.1904 5.15236 64.5062 5.92679 64.4917 6.40658L64.3776 10.3584L60.6071 6.10389C60.0841 5.5114 59.6968 4.79654 59.6936 4.78929L59.6767 4.7579L59.643 4.74421C59.5297 4.69752 59.3851 4.67015 59.2356 4.66532C58.9785 4.65727 58.5029 4.6943 58.2281 5.02517L58.1679 5.09762L58.2362 5.16282C58.2426 5.16846 58.8492 5.75774 58.8219 6.70122L58.6853 11.4025C58.6692 11.9451 58.3808 12.6576 58.3776 12.6648L58.347 12.7397L58.4137 12.7856C58.6178 12.9265 58.9271 13.0102 59.2822 13.0206C59.6116 13.0287 59.937 12.9619 60.15 12.8371L60.2287 12.7912L60.1901 12.7083C60.1869 12.701 59.8591 11.987 59.8752 11.45L59.9917 7.42816L63.5035 11.4428C63.9454 11.9492 64.5335 13.0987 64.5391 13.11L64.5616 13.1535L64.6098 13.1631C64.6886 13.1792 64.7754 13.1816 64.8549 13.1841C64.8758 13.1841 64.8967 13.1849 64.9176 13.1849C65.1489 13.1849 65.4036 13.1414 65.6157 12.9039L65.6495 12.8661L65.639 12.8162C65.6374 12.8089 65.4824 12.0812 65.4928 11.6988L65.6455 6.442C65.6591 5.9598 65.9845 5.20308 65.9877 5.19503L66.0215 5.11694L65.95 5.07025C65.7347 4.92937 65.4269 4.84645 65.0839 4.83679L65.0847 4.83518Z" fill="black"/>
<path d="M71.8656 5.62644C70.478 5.41069 69.2544 5.68279 68.3264 6.41456C67.5133 7.05535 66.9718 8.01333 66.8015 9.11299C66.6111 10.3382 66.8521 11.45 67.4981 12.3274C68.14 13.2009 69.1242 13.762 70.3422 13.952C70.809 14.0244 71.308 14.0615 71.8077 14.0615C71.9764 14.0615 72.1452 14.0574 72.3131 14.0486L73.1784 14.0164L73.2748 13.9101L73.2571 13.8546C73.2555 13.8505 73.1173 13.4078 73.172 13.0544L73.3069 12.1817C73.3945 11.6182 73.7729 11.1223 73.777 11.1167L73.838 11.037L73.7593 10.975C73.5592 10.8188 73.2226 10.6949 72.8345 10.6345C72.4465 10.5741 72.0528 10.5902 71.7804 10.6771L71.6583 10.7166L71.725 10.8261C71.729 10.8317 72.0937 11.4387 72.0046 12.0151L71.9138 12.6003C71.8881 12.7638 71.8077 12.8338 71.7748 12.8419C71.5016 12.9248 71.1714 12.9344 70.7641 12.87C69.8433 12.7267 69.1146 12.2952 68.6574 11.623C68.2123 10.9686 68.0524 10.137 68.1955 9.21925C68.3176 8.42953 68.6815 7.74848 69.219 7.29928C69.8321 6.78809 70.6532 6.59488 71.5924 6.7414C72.4031 6.86778 73.1181 7.43935 73.4162 8.19848L73.4371 8.25242L73.7336 8.29831L73.7697 8.2484C74.026 7.8966 74.165 7.50375 74.267 6.84766L74.2751 6.79694L74.2389 6.76072C73.658 6.18351 72.7919 5.76973 71.864 5.62483L71.8656 5.62644Z" fill="black"/>
<path d="M83.5476 16.1723C83.6344 15.8285 83.5115 15.4019 83.2592 15.1789L83.2102 15.1354L83.1507 15.1628C82.3015 15.554 81.4555 15.641 80.7693 15.4067C79.9651 15.1322 79.3882 14.5848 79.103 13.8248C78.8491 13.1486 78.8491 12.3323 79.103 11.5853C79.5867 10.1628 80.9493 9.0269 82.9041 9.69346C83.7099 9.96877 84.3061 10.612 84.4595 11.3727L84.4708 11.4291L84.7608 11.5281L84.805 11.4766C85.124 11.1079 85.3618 10.6869 85.5313 10.1902L85.5474 10.1419L85.5185 10.1C85.0822 9.47127 84.3575 8.98021 83.3636 8.64129C82.0291 8.18646 80.7717 8.23959 79.7265 8.79908C78.8097 9.28934 78.1067 10.1419 77.7468 11.1997C77.3869 12.2583 77.3973 13.3539 77.7765 14.2829C78.1991 15.3189 79.046 16.0797 80.2254 16.4822C80.7251 16.6529 81.212 16.7374 81.6788 16.7374C82.336 16.7374 82.9515 16.5691 83.5018 16.2335L83.5372 16.2125L83.5468 16.1723H83.5476Z" fill="black"/>
<path d="M87.8622 10.4857C87.5859 10.3545 87.2564 10.2869 86.9616 10.2836H86.8636L86.8612 10.3819C86.8612 10.3891 86.8411 11.083 86.5647 11.6675L84.4693 16.1048C84.1383 16.8059 83.5582 17.2744 83.5518 17.2793L83.5116 17.3115L83.5269 17.6037L83.5839 17.6287C83.5944 17.6335 84.6469 18.0932 84.8397 18.1841L86.7591 19.0946C87.1777 19.2926 87.5216 19.5849 87.5256 19.5881L87.5851 19.6388L87.6493 19.5937C87.8317 19.4641 87.9996 19.2492 88.1234 18.9883C88.2358 18.7501 88.3049 18.4908 88.3226 18.2397L88.3314 18.1133L88.2061 18.1334C88.1997 18.1334 87.5778 18.2308 87.0692 17.9893L85.4262 17.21L87.7731 12.2415C88.0494 11.657 88.5717 11.2014 88.5773 11.1965L88.6512 11.1321L88.5893 11.0565C88.3965 10.8206 88.1386 10.6185 87.8622 10.4873V10.4857Z" fill="black"/>
<path d="M95.3203 20.2973L97.0678 17.4982C97.4101 16.95 97.9829 16.5579 97.9885 16.5539L98.0665 16.5016L98.0191 16.4203C97.8736 16.1707 97.6567 15.951 97.3924 15.7851C97.128 15.6193 96.8364 15.5203 96.548 15.4977L96.454 15.4905L96.4403 15.5839C96.4395 15.5911 96.3383 16.2778 95.996 16.826L94.4148 19.3586C93.2651 21.1997 92.4376 21.1812 91.3971 20.5291C90.2731 19.8247 90.2128 18.8998 91.1882 17.3364L92.7951 14.7627C93.1301 14.2258 93.6829 13.8651 93.6885 13.8611L93.7729 13.8064L93.7191 13.7219C93.5551 13.4642 93.3222 13.2332 93.0634 13.0714C92.8047 12.9096 92.4954 12.8001 92.1925 12.7655L92.0953 12.7542L92.0816 12.8516C92.0808 12.8589 91.9796 13.5456 91.6373 14.0938L89.9349 16.8204C88.6493 18.8796 88.904 20.3729 90.7343 21.5209C91.3626 21.9146 91.9764 22.1118 92.5685 22.1118C92.7927 22.1118 93.0136 22.0836 93.2306 22.0265C94.0292 21.818 94.7322 21.2351 95.3187 20.2957L95.3203 20.2973Z" fill="black"/>
<path d="M101.597 19.0784C101.368 18.8844 101.176 18.7508 100.991 18.6211C100.81 18.4948 100.622 18.3635 100.4 18.1752L99.5241 17.4329L99.2879 17.4828L99.2678 17.5336C99.2646 17.5424 98.9247 18.4175 98.6355 18.7604L95.4081 22.5819C95.1261 22.9151 94.3299 23.3861 94.3219 23.3909L94.2817 23.4142L94.2343 23.6823L95.1165 24.431C95.3398 24.6202 95.58 24.852 95.813 25.0766C96.0476 25.3028 96.2903 25.5363 96.5176 25.7295C97.0648 26.1932 97.6159 26.3204 98.0562 26.3204C98.1832 26.3204 98.3005 26.3099 98.4065 26.2938C99.0027 26.2028 99.5763 25.876 99.9805 25.397C100.467 24.8214 100.7 23.7894 100.245 22.924C100.938 22.9707 101.617 22.5601 102.009 22.0956C102.355 21.6867 102.523 21.1779 102.484 20.6627C102.439 20.0815 102.132 19.5332 101.595 19.0784H101.597ZM101.155 20.579C101.178 20.847 101.086 21.1183 100.897 21.3421C100.52 21.7889 99.7611 22.0368 99.3474 21.6859L98.4933 20.9621L99.9877 19.1927C100.087 19.2539 100.295 19.3948 100.612 19.6636C100.941 19.9422 101.129 20.2586 101.155 20.5782V20.579ZM97.0029 24.687C96.6301 24.3714 96.2316 23.9745 96.0798 23.8208L97.804 21.7792C97.9887 21.9322 98.4596 22.321 98.6644 22.4949C99.4365 23.1494 99.4028 24.0108 98.9705 24.5228C98.793 24.7329 98.5038 24.9993 98.1366 25.0718C97.771 25.1434 97.3894 25.0146 97.0037 24.687H97.0029Z" fill="black"/>
<path d="M89.0283 24.3633C81.2887 19.3939 71.0272 16.6568 60.1382 16.6568C49.2492 16.6568 38.9876 19.3939 31.2481 24.3633C23.2836 29.4736 18.8984 36.342 18.8984 43.7055C18.8984 51.0691 23.2828 57.9375 31.2481 63.0518C38.9876 68.0172 49.2492 70.7543 60.1382 70.7543C71.0272 70.7543 81.2887 68.0172 89.0283 63.0518C96.9927 57.9375 101.378 51.0691 101.378 43.7055C101.378 36.342 96.9935 29.4736 89.0283 24.3633ZM88.727 31.0425C88.727 32.6912 85.3115 32.977 81.1883 33.1589C77.0008 33.3481 72.6767 33.5381 72.6767 36.6777C72.6767 39.8173 77.0209 41.127 81.623 42.6067C84.0365 43.3803 88.0633 44.678 88.0633 45.6698C88.0633 46.1939 85.8386 47.1655 82.1982 47.1655C80.0538 47.1655 77.8661 46.7703 75.6855 46.1576C72.4477 45.2463 69.2411 43.8601 66.2684 42.5745C66.1921 42.5383 66.1126 42.5052 66.033 42.469C65.8611 42.3917 65.7703 42.2026 65.8201 42.0206C65.8627 41.8661 65.9045 41.7083 65.943 41.5505C66.4379 39.6563 66.8485 37.4433 67.206 34.7593C67.2181 34.6547 67.2783 34.5621 67.3667 34.5057C71.1276 32.1358 76.9365 29.476 84.0847 29.476C88.727 29.476 88.727 30.6529 88.727 31.0442V31.0425ZM52.2862 28.3658C52.9779 29.0831 54.1566 29.8165 56.2969 29.8165C58.831 29.8165 60.891 27.531 60.891 24.7183C60.891 22.5407 59.6834 20.7592 57.8652 19.9638C57.846 19.955 57.85 19.9276 57.8717 19.9268C58.6205 19.897 59.3797 19.8817 60.1398 19.8817C70.0719 19.8817 79.1226 22.2799 85.9045 26.2019C85.2971 26.1255 84.77 26.0892 84.4326 26.0691C83.2298 25.9886 81.9427 26.0731 81.255 26.1214C80.229 26.1899 79.3765 26.2945 78.7772 26.3831C78.7772 26.3831 73.4833 27.1567 67.6142 30.599C67.1353 30.8767 66.3552 31.3686 65.7237 32.296C65.1685 33.1058 64.9516 33.9245 64.8584 34.4768L64.4478 36.573C64.1481 38.1726 63.8003 39.6209 63.4042 40.9089C63.3407 41.1166 63.1101 41.2196 62.9092 41.1383C62.1042 40.8123 61.316 40.5104 60.5471 40.2528H60.5447L57.9793 39.5589C57.9673 39.5589 57.9593 39.5548 57.9512 39.5548C57.2072 39.4099 56.5838 39.3415 56.0165 39.3415C52.8068 39.3415 51.1292 41.3726 51.1292 43.3763C51.1292 43.9849 51.5317 44.7384 52.0419 45.4605C52.2187 45.7141 52.0098 46.061 51.7037 46.0168C47.4559 45.3961 43.7874 43.0663 40.2193 40.797C40.053 40.6939 39.8867 40.5869 39.7244 40.483C39.7196 40.4798 39.7164 40.4742 39.7156 40.4693C39.6248 39.9227 39.5806 39.6522 39.493 39.1056C39.4922 39.1 39.493 39.0936 39.497 39.0895C43.9191 33.6548 51.8387 23.3167 56.0647 23.3167C57.5937 23.3167 58.3939 24.026 58.3939 24.7191C58.3939 25.3518 58.1971 26.408 56.632 26.8677C55.602 27.1656 54.7656 27.2509 53.6592 26.3678C53.2567 26.0417 52.6694 26.0739 52.3038 26.4402C52.0347 26.7099 51.9013 27.0609 51.9013 27.4119C51.9013 27.7629 52.0299 28.101 52.2878 28.3675L52.2862 28.3658ZM58.4847 44.0847C58.5048 45.0765 57.6684 45.7294 57.568 45.8058C57.0248 46.2172 56.0913 46.5352 55.2709 46.1117C54.6394 45.7857 54.4024 45.1844 54.3414 45.0314C54.2851 44.8865 53.971 44.0678 54.4137 43.3988C54.719 42.9351 55.2139 42.7983 55.5562 42.7057C56.5219 42.4441 57.9376 42.6091 58.3602 43.4713C58.4767 43.7128 58.4807 43.935 58.4847 44.0839V44.0847ZM53.0719 20.2923C53.0936 20.2899 53.1049 20.3172 53.0856 20.3277C48.6369 22.8209 42.9598 30.4621 39.4705 34.9598C38.5939 36.0884 37.6885 37.2493 36.783 38.3658C36.6745 38.4987 36.4889 38.5309 36.3403 38.4504C34.2851 37.3096 31.9278 36.2977 29.4139 36.2977C26.1511 36.2977 23.9031 38.0003 22.5967 40.0886C22.5846 40.1079 22.5549 40.095 22.5605 40.0733C25.0006 30.1071 37.343 22.1527 53.0719 20.2923ZM34.4578 41.0337C34.3333 41.1665 34.2128 41.2953 34.0875 41.4209C33.8103 41.7155 33.5283 41.9933 33.2551 42.2589C33.2471 42.267 33.235 42.275 33.227 42.2831C33.0422 42.4642 32.8566 42.6381 32.6758 42.8031C32.6734 42.8031 32.6702 42.8047 32.6678 42.8071C32.483 42.9802 32.3014 43.138 32.1206 43.2909C32.1166 43.295 32.1086 43.299 32.1046 43.307C31.8435 43.5325 31.5775 43.7466 31.3204 43.9398C31.232 44.0082 31.1477 44.0766 31.0593 44.137C30.9709 44.2055 30.8825 44.2658 30.7982 44.3262C30.7098 44.3866 30.6254 44.447 30.5411 44.5033C29.9819 44.8825 29.4347 45.1884 28.9037 45.4307C28.8193 45.4709 28.7349 45.5072 28.6506 45.5394C28.3975 45.6481 28.1476 45.7366 27.8986 45.8139C27.8423 45.83 27.7861 45.8501 27.7298 45.8622C27.4567 45.9427 27.1827 45.999 26.9135 46.0393C26.8694 46.0473 26.8292 46.0554 26.785 46.0594C26.6966 46.0715 26.6123 46.0795 26.5239 46.0876C26.4917 46.0916 26.4596 46.0956 26.4275 46.0956C26.3552 46.1037 26.2828 46.1077 26.2105 46.1117C26.1222 46.1158 26.0298 46.1158 25.9414 46.1158C23.7488 46.1158 23.7488 45.0113 23.7488 44.4832C23.7488 42.8184 24.9596 39.9968 29.4813 39.9968C29.626 39.9968 29.7746 40.0008 29.924 40.0049C30.2824 40.021 30.6439 40.0491 31.0063 40.1015C31.0906 40.1095 31.175 40.1216 31.2594 40.1377C31.4321 40.1618 31.6056 40.194 31.7784 40.2303C31.923 40.2544 32.0716 40.2866 32.2211 40.3228C32.2251 40.3228 32.2331 40.3228 32.2371 40.3269C32.4219 40.3671 32.6075 40.4154 32.7923 40.4677C33.0213 40.5321 33.2551 40.6006 33.4881 40.677C33.6448 40.7294 33.8014 40.7817 33.9629 40.8421C34.1276 40.9024 34.2931 40.9628 34.4619 41.0313L34.4578 41.0337ZM23.1237 49.1724C23.1165 49.1531 23.139 49.1378 23.1551 49.1507C23.9119 49.7682 24.8857 50.1473 26.0707 50.1473C29.458 50.1473 32.72 47.209 36.7709 42.4046C36.8754 42.2758 37.0602 42.2356 37.2056 42.3161C38.7386 43.142 40.2587 44.1097 41.7394 45.0523C43.8758 46.4104 46.0515 47.7934 48.2802 48.7603C48.5293 48.8689 48.5743 49.1998 48.3565 49.3648C43.8798 52.8232 40.7014 56.9304 40.7014 60.7148C40.7014 61.8853 41.0171 63.4342 42.3621 64.7206C42.3773 64.7351 42.3637 64.7609 42.3428 64.7536C32.7995 61.5794 25.6618 55.925 23.1245 49.1724H23.1237ZM60.1382 67.5302C57.8548 67.5302 55.6172 67.4046 53.4431 67.1615C53.419 67.159 53.4222 67.1236 53.4463 67.1212C58.4052 66.6809 62.2569 65.4741 64.9178 64.4027C69.1889 62.6823 76.4777 58.8593 75.9073 56.4708C75.8422 56.1987 75.6871 55.995 75.5506 55.8549L75.2485 55.6215C75.185 55.5699 75.0621 55.4822 74.8917 55.4428C74.3936 55.3293 73.9123 55.7318 73.8127 55.8106C73.7958 55.8235 70.2631 58.5767 62.1701 61.8362C54.6194 64.8776 44.5852 64.5025 43.36 61.3267C43.2724 61.0988 43.2354 60.9169 43.2354 60.549C43.2354 57.6469 47.3547 53.3545 53.0703 50.0741C53.1306 50.0419 53.1989 50.0258 53.2672 50.0298C53.4359 50.0378 53.6054 50.0459 53.7741 50.0459C56.775 50.0459 59.1805 48.7965 60.3149 46.854C60.7616 46.0844 61.0147 45.2053 61.0147 44.2505V44.1781C62.1853 44.5854 63.4283 45.0813 64.5989 45.6448C64.6712 45.6811 64.7475 45.7133 64.8198 45.7455C65.1452 45.8984 65.4754 46.0514 65.8137 46.2092C67.4953 46.9989 69.2572 47.8176 71.0875 48.559C70.9509 48.6476 70.8183 48.7401 70.6689 48.8375C68.9511 49.93 66.5938 50.9379 64.0437 51.6793C63.687 51.7791 63.4202 52.0649 63.3302 52.4368C63.2668 52.6968 63.3318 52.9721 63.4636 53.2056L63.6018 53.4487C63.8308 53.8641 64.3096 54.0654 64.7644 53.9406C68.8756 52.8079 71.9045 51.3653 73.7187 49.7247C73.8111 49.6402 73.9356 49.612 74.057 49.6522C76.591 50.4742 79.2263 51.0345 81.9331 51.0345C87.3595 51.0345 90.5974 48.9752 90.5974 45.5329C90.5974 40.8775 85.0022 39.6683 80.5046 38.6935C78.3971 38.2338 75.2067 37.5447 75.2067 36.7107C75.2067 36.0095 78.8872 35.9129 80.6572 35.8646C85.383 35.7358 91.2554 35.5788 91.257 30.8123C91.257 30.8107 91.257 30.8115 91.257 30.8099C91.2554 30.7986 91.1991 30.4243 91.1003 29.9558C91.0963 29.9316 91.0883 29.9075 91.0843 29.8793C95.5369 33.7804 98.1601 38.5566 98.1601 43.708C98.1601 56.8475 81.1047 67.5326 60.139 67.5326L60.1382 67.5302Z" fill="black"/>
</g>
<defs>
<clipPath id="clip0_1_2">
<rect width="96.653" height="77.2821" fill="white" transform="translate(11.5 4.66357)"/>
</clipPath>
</defs>
</svg>
